<svg width="193" height="215" viewBox="0 0 193 215" fill="none" xmlns="http://www.w3.org/2000/svg">
<path d="M0 149.781V107.459V65.1362C0 57.7599 5.18637 48.7769 11.5746 45.0887L48.2269 23.9274L84.8793 2.76616C91.2674 -0.922054 101.64 -0.922054 108.028 2.76616L144.681 23.9274L181.333 45.0887C187.721 48.7769 192.908 57.7599 192.908 65.1362V107.459V149.781C192.908 157.158 187.721 166.141 181.333 169.829L144.681 190.99L108.028 212.151C101.64 215.84 91.2674 215.84 84.8793 212.151L48.2269 190.99L11.5746 169.829C5.18637 166.141 0 157.158 0 149.781Z" fill="url(#paint0_linear_7_38)"/>
<path d="M2.2716 159.042L5.15536 154.565L21.2275 129.604C21.7555 129.658 22.2912 129.686 22.8333 129.686C25.2905 129.686 27.6153 129.115 29.6823 128.099L60.7113 151.518C60.5511 152.412 60.4676 153.333 60.4676 154.273C60.4676 162.859 67.4378 169.829 76.0231 169.829C84.6083 169.829 91.5785 162.859 91.5785 154.273C91.5785 148.99 88.939 144.319 84.9079 141.507L92.7106 85.8744C93.7974 85.4281 94.8227 84.8622 95.7702 84.1931L139.36 106.965C140.283 114.671 146.851 120.654 154.804 120.654C163.389 120.654 170.36 113.683 170.36 105.098C170.36 103.533 170.128 102.023 169.697 100.598L192.908 73.696V65.1362C192.908 61.9379 191.932 58.4374 190.307 55.1976L159.93 90.4084C158.325 89.8476 156.6 89.5426 154.804 89.5426C150.736 89.5426 147.03 91.1075 144.257 93.6677L102.364 71.7842C102.366 71.6825 102.367 71.5804 102.367 71.4782C102.367 62.8929 95.3968 55.9227 86.8115 55.9227C78.2263 55.9227 71.2561 62.8929 71.2561 71.4782C71.2561 77.0838 74.2277 82.0009 78.6801 84.7388L70.9938 139.55C70.369 139.764 69.7621 140.016 69.1758 140.304L38.145 116.886C38.3052 115.992 38.3888 115.071 38.3888 114.13C38.3888 105.545 31.4187 98.5748 22.8333 98.5748C14.248 98.5748 7.27782 105.545 7.27782 114.13C7.27782 116.999 8.05618 119.688 9.41308 121.996L0 136.617V149.781C0 152.758 0.844483 155.996 2.2716 159.042Z" fill="white"/>
<defs>
<linearGradient id="paint0_linear_7_38" x1="-0.132079" y1="62.3832" x2="201.972" y2="125.927" gradientUnits="userSpaceOnUse">
<stop stop-color="#36339B"/>
<stop offset="1" stop-color="#88169C"/>
</linearGradient>
</defs>
</svg>
