<svg width="955" height="233" viewBox="0 0 955 233" fill="none" xmlns="http://www.w3.org/2000/svg">
<path fill-rule="evenodd" clip-rule="evenodd" d="M274.265 134.252C279.326 129.19 281.857 122.028 281.857 112.766C281.857 103.504 279.326 96.2757 274.265 91.0826C269.178 85.8593 261.973 83.2476 252.65 83.2476H240.062V141.859H252.65C261.973 141.874 269.178 139.339 274.265 134.252ZM363.01 125.862L350.164 88.7368L337.326 125.862H363.01ZM464.851 68.2605V82.6325H441.201V157.036H423.398V82.6325H399.748V68.2605H464.851ZM527.41 125.862L514.572 88.7368L501.726 125.862H527.41ZM581.436 147.599H612.442V157.013H569.866V68.3896H581.436V147.599ZM686.846 68.3896L657.995 123.569V156.975H646.41V123.569L617.415 68.3896H630.261L652.126 113.275L673.999 68.3896H686.846ZM753.588 68.3896V77.7963H729.43V157.013H717.86V77.7963H693.565V68.3896H753.588ZM779.401 68.3896V157.013H767.831V68.3896H779.401ZM800.629 89.3213C804.369 82.5675 809.882 76.9631 816.573 73.1121C823.394 69.187 831.145 67.1654 839.015 67.2586C848.672 67.2586 857.105 69.5919 864.312 74.2583C871.52 78.925 876.776 85.5354 880.081 94.0893H866.233C863.998 89.012 860.297 84.7184 855.604 81.7593C850.983 78.8745 845.453 77.4321 839.015 77.4321C833.173 77.3399 827.416 78.8354 822.358 81.7593C817.413 84.6652 813.399 88.9215 810.788 94.0284C807.989 99.3278 806.589 105.536 806.589 112.652C806.589 119.687 807.989 125.855 810.788 131.154C813.401 136.26 817.414 140.515 822.358 143.423C827.418 146.341 833.174 147.834 839.015 147.743C845.453 147.743 850.983 146.323 855.604 143.484C860.302 140.558 864.007 136.282 866.233 131.215H880.096C876.786 139.688 871.53 146.222 864.327 150.818C857.125 155.414 848.693 157.724 839.03 157.749C831.169 157.844 823.424 155.847 816.588 151.964C809.905 148.16 804.391 142.599 800.644 135.884C792.848 121.329 792.848 103.839 800.644 89.2833L800.629 89.3213ZM277.886 73.7344C284.772 77.1972 290.478 82.6207 294.285 89.3213C298.142 96.0632 300.071 103.883 300.071 112.781C300.071 121.679 298.142 129.456 294.285 136.112C290.446 142.757 284.745 148.133 277.886 151.577C270.8 155.221 262.598 157.043 253.28 157.043H222.259V68.2605H253.28C262.604 68.2605 270.806 70.0852 277.886 73.7344ZM367.838 140.098H332.497L326.643 157.013H307.951L339.884 68.1391H360.611L392.498 157.013H373.684L367.838 140.098ZM532.231 140.098H496.89L491.044 157.013H472.352L504.239 68.1391H524.966L556.853 157.013H538.085L532.231 140.098ZM909.653 154.789C905.318 152.934 901.563 149.947 898.781 146.141C896.136 142.402 894.714 137.936 894.711 133.356H907.018C907.375 137.368 909.209 141.105 912.166 143.84C915.172 146.69 919.558 148.11 925.323 148.1C930.835 148.1 935.18 146.723 938.358 143.97C941.485 141.339 943.241 137.425 943.126 133.341C943.126 129.944 942.195 127.188 940.332 125.073C938.423 122.926 936.025 121.269 933.34 120.244C929.634 118.853 925.855 117.664 922.02 116.683C917.23 115.513 912.533 113.991 907.967 112.128C904.39 110.554 901.282 108.08 898.948 104.946C896.442 101.681 895.189 97.2955 895.189 91.7888C895.107 87.234 896.392 82.7595 898.879 78.9429C901.452 75.1228 905.067 72.1213 909.296 70.2953C914.123 68.1878 919.35 67.1515 924.617 67.2586C932.922 67.2586 939.725 69.3363 945.024 73.4916C950.226 77.4755 953.484 83.4866 953.983 90.0198H941.251C940.826 86.6337 939.054 83.645 935.937 81.0535C932.819 78.462 928.656 77.1689 923.447 77.174C918.619 77.174 914.678 78.4241 911.626 80.9245C908.574 83.4248 907.056 86.9197 907.071 91.4092C906.951 94.2897 907.928 97.1089 909.804 99.2974C911.657 101.351 913.966 102.94 916.546 103.936C920.226 105.326 923.974 106.53 927.775 107.543C932.583 108.798 937.297 110.392 941.881 112.31C945.5 113.92 948.655 116.416 951.052 119.568C953.583 122.833 954.848 127.262 954.848 132.855C954.852 137.16 953.664 141.383 951.417 145.055C948.952 149.034 945.43 152.248 941.244 154.341C936.749 156.719 931.45 157.906 925.345 157.901C919.953 157.99 914.603 156.929 909.653 154.789Z" fill="white"/>
<path d="M285.114 192.618C286.729 192.874 288.195 193.535 289.513 194.602C290.873 195.669 291.935 196.992 292.7 198.571C293.507 200.15 293.911 201.836 293.911 203.628C293.911 205.89 293.337 207.939 292.19 209.774C291.043 211.566 289.364 212.996 287.154 214.063C284.987 215.087 282.416 215.599 279.441 215.599H262.868V170.98H278.804C281.821 170.98 284.392 171.492 286.517 172.517C288.642 173.498 290.235 174.843 291.298 176.55C292.36 178.257 292.891 180.177 292.891 182.311C292.891 184.957 292.169 187.155 290.724 188.905C289.322 190.612 287.452 191.849 285.114 192.618ZM268.669 190.249H278.421C281.141 190.249 283.245 189.609 284.732 188.329C286.219 187.048 286.963 185.277 286.963 183.015C286.963 180.753 286.219 178.982 284.732 177.702C283.245 176.422 281.099 175.781 278.294 175.781H268.669V190.249ZM278.931 210.798C281.821 210.798 284.073 210.115 285.688 208.749C287.303 207.384 288.11 205.485 288.11 203.052C288.11 200.577 287.261 198.635 285.561 197.227C283.861 195.776 281.587 195.05 278.74 195.05H268.669V210.798H278.931Z" fill="white"/>
<path d="M332.94 180.519V215.599H327.14V210.414C326.035 212.206 324.484 213.615 322.486 214.639C320.531 215.62 318.364 216.111 315.984 216.111C313.265 216.111 310.821 215.556 308.654 214.447C306.487 213.295 304.765 211.587 303.491 209.326C302.258 207.064 301.642 204.311 301.642 201.068V180.519H307.379V200.299C307.379 203.756 308.25 206.424 309.992 208.301C311.735 210.136 314.115 211.054 317.132 211.054C320.234 211.054 322.677 210.094 324.462 208.173C326.247 206.253 327.14 203.458 327.14 199.787V180.519H332.94Z" fill="white"/>
<path d="M355.101 216.175C352.423 216.175 350.022 215.727 347.898 214.831C345.773 213.892 344.094 212.612 342.862 210.99C341.629 209.326 340.95 207.426 340.822 205.293H346.814C346.984 207.042 347.791 208.472 349.236 209.582C350.724 210.691 352.657 211.246 355.037 211.246C357.247 211.246 358.989 210.755 360.264 209.774C361.539 208.792 362.176 207.554 362.176 206.061C362.176 204.524 361.496 203.393 360.136 202.668C358.777 201.9 356.673 201.153 353.826 200.427C351.234 199.745 349.109 199.062 347.451 198.379C345.837 197.653 344.434 196.608 343.244 195.242C342.097 193.834 341.523 191.999 341.523 189.737C341.523 187.944 342.054 186.301 343.117 184.808C344.179 183.314 345.688 182.14 347.643 181.287C349.597 180.391 351.828 179.942 354.336 179.942C358.203 179.942 361.326 180.924 363.706 182.887C366.086 184.85 367.361 187.539 367.531 190.953H361.73C361.603 189.118 360.859 187.646 359.499 186.536C358.182 185.426 356.397 184.872 354.144 184.872C352.062 184.872 350.405 185.32 349.172 186.216C347.94 187.112 347.324 188.286 347.324 189.737C347.324 190.889 347.685 191.849 348.408 192.618C349.172 193.343 350.107 193.941 351.212 194.41C352.36 194.837 353.932 195.328 355.929 195.882C358.437 196.565 360.476 197.248 362.049 197.931C363.621 198.571 364.96 199.553 366.065 200.876C367.212 202.199 367.807 203.927 367.849 206.061C367.849 207.981 367.318 209.71 366.256 211.246C365.193 212.782 363.685 213.999 361.73 214.895C359.818 215.748 357.608 216.175 355.101 216.175Z" fill="white"/>
<path d="M379.034 174.821C377.929 174.821 376.994 174.437 376.229 173.669C375.464 172.901 375.082 171.962 375.082 170.852C375.082 169.743 375.464 168.804 376.229 168.036C376.994 167.267 377.929 166.883 379.034 166.883C380.096 166.883 380.989 167.267 381.711 168.036C382.476 168.804 382.859 169.743 382.859 170.852C382.859 171.962 382.476 172.901 381.711 173.669C380.989 174.437 380.096 174.821 379.034 174.821ZM381.839 180.519V215.599H376.038V180.519H381.839Z" fill="white"/>
<path d="M408.745 179.878C412.994 179.878 416.436 181.18 419.071 183.783C421.706 186.344 423.023 190.057 423.023 194.922V215.599H417.286V195.754C417.286 192.255 416.415 189.587 414.673 187.752C412.93 185.875 410.551 184.936 407.533 184.936C404.474 184.936 402.03 185.896 400.203 187.816C398.418 189.737 397.526 192.532 397.526 196.202V215.599H391.725V180.519H397.526V185.512C398.673 183.719 400.224 182.332 402.179 181.351C404.176 180.369 406.365 179.878 408.745 179.878Z" fill="white"/>
<path d="M464.37 196.715C464.37 197.824 464.307 198.998 464.179 200.235H436.259C436.472 203.692 437.641 206.402 439.765 208.365C441.933 210.286 444.546 211.246 447.606 211.246C450.113 211.246 452.195 210.67 453.853 209.518C455.553 208.323 456.742 206.744 457.422 204.78H463.669C462.734 208.152 460.864 210.905 458.06 213.038C455.255 215.13 451.77 216.175 447.606 216.175C444.291 216.175 441.316 215.428 438.682 213.935C436.089 212.441 434.05 210.329 432.562 207.597C431.075 204.823 430.331 201.622 430.331 197.995C430.331 194.367 431.054 191.188 432.499 188.457C433.943 185.725 435.962 183.634 438.554 182.183C441.189 180.689 444.206 179.942 447.606 179.942C450.92 179.942 453.853 180.668 456.402 182.119C458.952 183.57 460.907 185.576 462.267 188.136C463.669 190.654 464.37 193.514 464.37 196.715ZM458.378 195.498C458.378 193.279 457.89 191.38 456.912 189.801C455.935 188.179 454.596 186.963 452.897 186.152C451.239 185.298 449.391 184.872 447.351 184.872C444.419 184.872 441.911 185.811 439.829 187.688C437.789 189.566 436.621 192.169 436.323 195.498H458.378Z" fill="white"/>
<path d="M484.393 216.175C481.716 216.175 479.315 215.727 477.19 214.831C475.066 213.892 473.387 212.612 472.155 210.99C470.922 209.326 470.242 207.426 470.115 205.293H476.107C476.277 207.042 477.084 208.472 478.529 209.582C480.016 210.691 481.95 211.246 484.33 211.246C486.539 211.246 488.282 210.755 489.557 209.774C490.832 208.792 491.469 207.554 491.469 206.061C491.469 204.524 490.789 203.393 489.429 202.668C488.069 201.9 485.966 201.153 483.119 200.427C480.526 199.745 478.401 199.062 476.744 198.379C475.129 197.653 473.727 196.608 472.537 195.242C471.39 193.834 470.816 191.999 470.816 189.737C470.816 187.944 471.347 186.301 472.41 184.808C473.472 183.314 474.981 182.14 476.935 181.287C478.89 180.391 481.121 179.942 483.628 179.942C487.496 179.942 490.619 180.924 492.999 182.887C495.379 184.85 496.653 187.539 496.823 190.953H491.023C490.895 189.118 490.152 187.646 488.792 186.536C487.474 185.426 485.69 184.872 483.437 184.872C481.355 184.872 479.698 185.32 478.465 186.216C477.233 187.112 476.617 188.286 476.617 189.737C476.617 190.889 476.978 191.849 477.7 192.618C478.465 193.343 479.4 193.941 480.505 194.41C481.652 194.837 483.225 195.328 485.222 195.882C487.729 196.565 489.769 197.248 491.341 197.931C492.914 198.571 494.252 199.553 495.357 200.876C496.505 202.199 497.1 203.927 497.142 206.061C497.142 207.981 496.611 209.71 495.549 211.246C494.486 212.782 492.978 213.999 491.023 214.895C489.11 215.748 486.901 216.175 484.393 216.175Z" fill="white"/>
<path d="M517.697 216.175C515.02 216.175 512.619 215.727 510.494 214.831C508.369 213.892 506.691 212.612 505.458 210.99C504.226 209.326 503.546 207.426 503.418 205.293H509.41C509.58 207.042 510.388 208.472 511.833 209.582C513.32 210.691 515.254 211.246 517.633 211.246C519.843 211.246 521.585 210.755 522.86 209.774C524.135 208.792 524.773 207.554 524.773 206.061C524.773 204.524 524.093 203.393 522.733 202.668C521.373 201.9 519.269 201.153 516.422 200.427C513.83 199.745 511.705 199.062 510.048 198.379C508.433 197.653 507.031 196.608 505.841 195.242C504.693 193.834 504.12 191.999 504.12 189.737C504.12 187.944 504.651 186.301 505.713 184.808C506.776 183.314 508.284 182.14 510.239 181.287C512.194 180.391 514.425 179.942 516.932 179.942C520.799 179.942 523.923 180.924 526.302 182.887C528.682 184.85 529.957 187.539 530.127 190.953H524.326C524.199 189.118 523.455 187.646 522.095 186.536C520.778 185.426 518.993 184.872 516.741 184.872C514.659 184.872 513.001 185.32 511.769 186.216C510.536 187.112 509.92 188.286 509.92 189.737C509.92 190.889 510.282 191.849 511.004 192.618C511.769 193.343 512.704 193.941 513.809 194.41C514.956 194.837 516.528 195.328 518.526 195.882C521.033 196.565 523.073 197.248 524.645 197.931C526.217 198.571 527.556 199.553 528.661 200.876C529.808 202.199 530.403 203.927 530.446 206.061C530.446 207.981 529.915 209.71 528.852 211.246C527.79 212.782 526.281 213.999 524.326 214.895C522.414 215.748 520.204 216.175 517.697 216.175Z" fill="white"/>
<path d="M561.429 170.98V215.599H555.629V170.98H561.429Z" fill="white"/>
<path d="M588.335 179.878C592.585 179.878 596.027 181.18 598.662 183.783C601.296 186.344 602.614 190.057 602.614 194.922V215.599H596.877V195.754C596.877 192.255 596.006 189.587 594.263 187.752C592.521 185.875 590.141 184.936 587.124 184.936C584.064 184.936 581.621 185.896 579.793 187.816C578.009 189.737 577.116 192.532 577.116 196.202V215.599H571.315V180.519H577.116V185.512C578.264 183.719 579.815 182.332 581.769 181.351C583.767 180.369 585.955 179.878 588.335 179.878Z" fill="white"/>
<path d="M619.165 185.32V205.997C619.165 207.704 619.526 208.92 620.248 209.646C620.971 210.329 622.224 210.67 624.009 210.67H628.28V215.599H623.053C619.823 215.599 617.401 214.852 615.786 213.359C614.171 211.865 613.364 209.411 613.364 205.997V185.32H608.838V180.519H613.364V171.684H619.165V180.519H628.28V185.32H619.165Z" fill="white"/>
<path d="M667.18 196.715C667.18 197.824 667.116 198.998 666.989 200.235H639.069C639.282 203.692 640.45 206.402 642.575 208.365C644.742 210.286 647.356 211.246 650.416 211.246C652.923 211.246 655.005 210.67 656.662 209.518C658.362 208.323 659.552 206.744 660.232 204.78H666.479C665.544 208.152 663.674 210.905 660.869 213.038C658.065 215.13 654.58 216.175 650.416 216.175C647.101 216.175 644.126 215.428 641.491 213.935C638.899 212.441 636.859 210.329 635.372 207.597C633.885 204.823 633.141 201.622 633.141 197.995C633.141 194.367 633.863 191.188 635.308 188.457C636.753 185.725 638.772 183.634 641.364 182.183C643.999 180.689 647.016 179.942 650.416 179.942C653.73 179.942 656.662 180.668 659.212 182.119C661.762 183.57 663.717 185.576 665.077 188.136C666.479 190.654 667.18 193.514 667.18 196.715ZM661.188 195.498C661.188 193.279 660.699 191.38 659.722 189.801C658.745 188.179 657.406 186.963 655.706 186.152C654.049 185.298 652.2 184.872 650.161 184.872C647.228 184.872 644.721 185.811 642.639 187.688C640.599 189.566 639.43 192.169 639.133 195.498H661.188Z" fill="white"/>
<path d="M680.638 168.228V215.599H674.837V168.228H680.638Z" fill="white"/>
<path d="M696.324 168.228V215.599H690.524V168.228H696.324Z" fill="white"/>
<path d="M709.207 174.821C708.102 174.821 707.167 174.437 706.402 173.669C705.637 172.901 705.255 171.962 705.255 170.852C705.255 169.743 705.637 168.804 706.402 168.036C707.167 167.267 708.102 166.883 709.207 166.883C710.269 166.883 711.161 167.267 711.884 168.036C712.649 168.804 713.031 169.743 713.031 170.852C713.031 171.962 712.649 172.901 711.884 173.669C711.161 174.437 710.269 174.821 709.207 174.821ZM712.011 180.519V215.599H706.211V180.519H712.011Z" fill="white"/>
<path d="M736.304 179.942C739.321 179.942 741.956 180.604 744.208 181.927C746.503 183.25 748.203 184.914 749.307 186.92V180.519H755.172V216.367C755.172 219.568 754.492 222.406 753.132 224.881C751.772 227.399 749.817 229.362 747.268 230.771C744.76 232.179 741.828 232.883 738.471 232.883C733.881 232.883 730.057 231.795 726.997 229.619C723.937 227.442 722.131 224.476 721.579 220.72H727.316C727.953 222.854 729.271 224.561 731.268 225.842C733.265 227.165 735.666 227.826 738.471 227.826C741.658 227.826 744.25 226.823 746.248 224.817C748.288 222.812 749.307 219.995 749.307 216.367V209.006C748.16 211.054 746.46 212.761 744.208 214.127C741.956 215.492 739.321 216.175 736.304 216.175C733.202 216.175 730.376 215.407 727.826 213.871C725.319 212.334 723.343 210.179 721.898 207.405C720.453 204.631 719.73 201.473 719.73 197.931C719.73 194.346 720.453 191.209 721.898 188.521C723.343 185.789 725.319 183.677 727.826 182.183C730.376 180.689 733.202 179.942 736.304 179.942ZM749.307 197.995C749.307 195.349 748.776 193.044 747.714 191.081C746.651 189.118 745.207 187.624 743.379 186.6C741.594 185.533 739.618 185 737.451 185C735.284 185 733.308 185.512 731.523 186.536C729.738 187.56 728.315 189.054 727.252 191.017C726.19 192.98 725.659 195.285 725.659 197.931C725.659 200.619 726.19 202.967 727.252 204.973C728.315 206.936 729.738 208.451 731.523 209.518C733.308 210.542 735.284 211.054 737.451 211.054C739.618 211.054 741.594 210.542 743.379 209.518C745.207 208.451 746.651 206.936 747.714 204.973C748.776 202.967 749.307 200.641 749.307 197.995Z" fill="white"/>
<path d="M796.846 196.715C796.846 197.824 796.783 198.998 796.655 200.235H768.735C768.948 203.692 770.117 206.402 772.241 208.365C774.409 210.286 777.022 211.246 780.082 211.246C782.589 211.246 784.671 210.67 786.329 209.518C788.028 208.323 789.218 206.744 789.898 204.78H796.145C795.21 208.152 793.34 210.905 790.536 213.038C787.731 215.13 784.246 216.175 780.082 216.175C776.767 216.175 773.792 215.428 771.158 213.935C768.565 212.441 766.526 210.329 765.038 207.597C763.551 204.823 762.807 201.622 762.807 197.995C762.807 194.367 763.53 191.188 764.974 188.457C766.419 185.725 768.438 183.634 771.03 182.183C773.665 180.689 776.682 179.942 780.082 179.942C783.396 179.942 786.329 180.668 788.878 182.119C791.428 183.57 793.383 185.576 794.743 188.136C796.145 190.654 796.846 193.514 796.846 196.715ZM790.854 195.498C790.854 193.279 790.366 191.38 789.388 189.801C788.411 188.179 787.072 186.963 785.372 186.152C783.715 185.298 781.867 184.872 779.827 184.872C776.895 184.872 774.387 185.811 772.305 187.688C770.265 189.566 769.097 192.169 768.799 195.498H790.854Z" fill="white"/>
<path d="M821.523 179.878C825.772 179.878 829.214 181.18 831.849 183.783C834.484 186.344 835.801 190.057 835.801 194.922V215.599H830.064V195.754C830.064 192.255 829.193 189.587 827.451 187.752C825.709 185.875 823.329 184.936 820.312 184.936C817.252 184.936 814.808 185.896 812.981 187.816C811.196 189.737 810.304 192.532 810.304 196.202V215.599H804.503V180.519H810.304V185.512C811.451 183.719 813.002 182.332 814.957 181.351C816.954 180.369 819.143 179.878 821.523 179.878Z" fill="white"/>
<path d="M843.109 197.995C843.109 194.367 843.832 191.209 845.277 188.521C846.722 185.789 848.719 183.677 851.269 182.183C853.861 180.689 856.814 179.942 860.129 179.942C864.421 179.942 867.948 180.988 870.71 183.079C873.515 185.17 875.364 188.072 876.256 191.785H870.009C869.414 189.651 868.246 187.966 866.503 186.728C864.804 185.49 862.679 184.872 860.129 184.872C856.814 184.872 854.137 186.024 852.097 188.329C850.057 190.59 849.038 193.812 849.038 197.995C849.038 202.22 850.057 205.485 852.097 207.789C854.137 210.094 856.814 211.246 860.129 211.246C862.679 211.246 864.804 210.649 866.503 209.454C868.203 208.259 869.372 206.552 870.009 204.332H876.256C875.321 207.917 873.451 210.798 870.647 212.974C867.842 215.108 864.336 216.175 860.129 216.175C856.814 216.175 853.861 215.428 851.269 213.935C848.719 212.441 846.722 210.329 845.277 207.597C843.832 204.866 843.109 201.665 843.109 197.995Z" fill="white"/>
<path d="M915.868 196.715C915.868 197.824 915.804 198.998 915.677 200.235H887.757C887.969 203.692 889.138 206.402 891.263 208.365C893.43 210.286 896.044 211.246 899.103 211.246C901.611 211.246 903.693 210.67 905.35 209.518C907.05 208.323 908.24 206.744 908.92 204.78H915.167C914.232 208.152 912.362 210.905 909.557 213.038C906.753 215.13 903.268 216.175 899.103 216.175C895.789 216.175 892.814 215.428 890.179 213.935C887.587 212.441 885.547 210.329 884.06 207.597C882.572 204.823 881.829 201.622 881.829 197.995C881.829 194.367 882.551 191.188 883.996 188.457C885.441 185.725 887.459 183.634 890.052 182.183C892.686 180.689 895.704 179.942 899.103 179.942C902.418 179.942 905.35 180.668 907.9 182.119C910.45 183.57 912.404 185.576 913.764 188.136C915.167 190.654 915.868 193.514 915.868 196.715ZM909.876 195.498C909.876 193.279 909.387 191.38 908.41 189.801C907.432 188.179 906.094 186.963 904.394 186.152C902.737 185.298 900.888 184.872 898.848 184.872C895.916 184.872 893.409 185.811 891.327 187.688C889.287 189.566 888.118 192.169 887.821 195.498H909.876Z" fill="white"/>
<path d="M0 149.781V107.459V65.1362C0 57.7599 5.18637 48.7769 11.5746 45.0887L48.2269 23.9274L84.8793 2.76616C91.2674 -0.922054 101.64 -0.922054 108.028 2.76616L144.681 23.9274L181.333 45.0887C187.721 48.7769 192.908 57.7599 192.908 65.1362V107.459V149.781C192.908 157.158 187.721 166.141 181.333 169.829L144.681 190.99L108.028 212.151C101.64 215.84 91.2674 215.84 84.8793 212.151L48.2269 190.99L11.5746 169.829C5.18637 166.141 0 157.158 0 149.781Z" fill="url(#paint0_linear_7_36)"/>
<path d="M2.2716 159.042L5.15536 154.565L21.2275 129.604C21.7555 129.658 22.2912 129.686 22.8333 129.686C25.2905 129.686 27.6153 129.115 29.6823 128.099L60.7113 151.518C60.5511 152.412 60.4676 153.333 60.4676 154.273C60.4676 162.859 67.4378 169.829 76.0231 169.829C84.6083 169.829 91.5785 162.859 91.5785 154.273C91.5785 148.99 88.939 144.319 84.9079 141.507L92.7106 85.8744C93.7974 85.4281 94.8227 84.8622 95.7702 84.1931L139.36 106.965C140.283 114.671 146.851 120.654 154.804 120.654C163.389 120.654 170.36 113.683 170.36 105.098C170.36 103.533 170.128 102.023 169.697 100.598L192.908 73.696V65.1362C192.908 61.9379 191.932 58.4374 190.307 55.1976L159.93 90.4084C158.325 89.8476 156.6 89.5426 154.804 89.5426C150.736 89.5426 147.03 91.1075 144.257 93.6677L102.364 71.7842C102.366 71.6825 102.367 71.5804 102.367 71.4782C102.367 62.8929 95.3968 55.9227 86.8115 55.9227C78.2263 55.9227 71.2561 62.8929 71.2561 71.4782C71.2561 77.0838 74.2277 82.0009 78.6801 84.7388L70.9938 139.55C70.369 139.764 69.7621 140.016 69.1758 140.304L38.145 116.886C38.3052 115.992 38.3888 115.071 38.3888 114.13C38.3888 105.545 31.4187 98.5748 22.8333 98.5748C14.248 98.5748 7.27782 105.545 7.27782 114.13C7.27782 116.999 8.05618 119.688 9.41308 121.996L0 136.617V149.781C0 152.758 0.844483 155.996 2.2716 159.042Z" fill="white"/>
<defs>
<linearGradient id="paint0_linear_7_36" x1="-0.132079" y1="62.3832" x2="201.972" y2="125.927" gradientUnits="userSpaceOnUse">
<stop stop-color="#36339B"/>
<stop offset="1" stop-color="#88169C"/>
</linearGradient>
</defs>
</svg>
