<svg width="291" height="291" viewBox="0 0 291 291" fill="none" xmlns="http://www.w3.org/2000/svg">
<g clip-path="url(#clip0_4_112)">
<path d="M242.7 0C240.9 0 239.2 0.9 238.3 2.5L230.2 16.2C227.8 15.4 225.2 15 222.6 15C208.9 15 197.6 26.3 197.6 40C197.6 47.2 200.7 53.7 205.6 58.3L173.1 113.7C168.4 111.4 163.2 110.1 157.6 110.1C140.2 110.1 125.7 122.9 123 139.6L87.5001 134C86.9001 120.8 75.9001 110.1 62.5001 110.1C48.8001 110.1 37.5001 121.4 37.5001 135.1C37.5001 141.2 39.7001 146.9 43.5001 151.2L3.6001 202C1.9001 204.1 2.2001 207.3 4.3001 209C6.4001 210.7 9.6001 210.4 11.3001 208.3L11.4001 208.2L51.3001 157.4C54.7001 159.1 58.5001 160.1 62.5001 160.1C73.2001 160.1 82.3001 153.3 85.9001 143.9L122.8 149.7C125.1 166.8 139.8 180.1 157.5 180.1C176.8 180.1 192.5 164.4 192.5 145.1C192.5 135 188.2 125.9 181.3 119.5L214 63.6C216.7 64.6 219.5 65.1 222.5 65.1C236.2 65.1 247.5 53.8 247.5 40.1C247.5 32.6 244.1 25.8 238.8 21.2L246.8 7.6C248.2 5.2 247.5 2.2 245.1 0.7C244.4 0.3 243.6 0 242.7 0ZM222.6 25.1C225 25.1 227.2 25.7 229.2 26.6C229.6 26.9 230.1 27.2 230.7 27.4C234.9 30 237.7 34.7 237.7 40.1C237.7 48.4 231 55.1 222.7 55.1C220.1 55.1 217.7 54.5 215.6 53.3C215.1 52.9 214.6 52.6 214.1 52.3C210.2 49.6 207.7 45.1 207.7 40C207.6 31.7 214.2 25.1 222.6 25.1ZM222.6 27.6C215.7 27.6 210.1 33.2 210.1 40.1C210.1 41.5 211.2 42.6 212.6 42.6C214 42.6 215.1 41.5 215.1 40.1C215.1 40.1 215.1 40.1 215.1 40C215.1 35.8 218.4 32.5 222.6 32.5C224 32.5 225.1 31.4 225.1 30C225.1 28.6 224 27.6 222.6 27.6ZM208.4 111.8C205.6 111.9 203.5 114.2 203.5 116.9C203.5 118.2 204.1 119.5 205.1 120.4C224.4 138.8 229.6 167.4 218.2 191.4C206.8 215.4 181.3 229.5 154.9 226.2C128.5 222.9 107.2 203.1 102 177C101.5 174.3 98.9001 172.5 96.2001 173C93.5001 173.5 91.7001 176.1 92.2001 178.8C92.2001 178.9 92.2001 178.9 92.2001 179C98.2001 209.3 123 232.4 153.7 236.2C169.5 238.2 185.1 234.8 198.3 227.2L252.1 288.4C253.9 290.5 257.1 290.7 259.2 288.9C259.3 288.8 259.4 288.8 259.4 288.7L286.1 262C288.1 260 288.1 256.9 286.1 254.9C286 254.8 286 254.8 285.9 254.7L225.4 199.5C226.1 198.3 226.7 197.1 227.3 195.8C240.5 167.9 234.4 134.6 212 113.3C211.1 112.3 209.8 111.8 208.4 111.8ZM62.6001 120.1C70.9001 120.1 77.6001 126.8 77.6001 135.1C77.6001 143.4 70.9001 150.1 62.6001 150.1C59.4001 150.1 56.5001 149.1 54.1001 147.5C53.7001 147 53.2001 146.7 52.7001 146.4C49.6001 143.7 47.6001 139.7 47.6001 135.2C47.6001 126.7 54.2001 120.1 62.6001 120.1ZM157.6 120.1C162.6 120.1 167.3 121.6 171.2 124.1C171.7 124.6 172.2 125 172.8 125.3C178.7 129.9 182.6 137 182.6 145.1C182.6 159 171.5 170.1 157.6 170.1C144.1 170.1 133.2 159.5 132.6 146.2C132.7 145.6 132.7 145.1 132.6 144.5C132.9 130.9 143.9 120.1 157.6 120.1ZM62.6001 122.6C55.7001 122.6 50.1001 128.2 50.1001 135.1C50.1001 136.5 51.2001 137.6 52.6001 137.6C54.0001 137.6 55.1001 136.5 55.1001 135.1C55.1001 135.1 55.1001 135.1 55.1001 135C55.1001 130.8 58.4001 127.5 62.6001 127.5C64.0001 127.5 65.1001 126.4 65.1001 125C65.1001 123.7 64.0001 122.6 62.6001 122.6ZM157.6 127.6C148 127.6 140.1 135.5 140.1 145.1C140.1 146.5 141.2 147.6 142.6 147.6C144 147.6 145.1 146.5 145.1 145.1C145.1 145.1 145.1 145.1 145.1 145C145.1 138.1 150.7 132.5 157.6 132.5C159 132.5 160.1 131.4 160.1 130C160.1 128.7 159 127.6 157.6 127.6ZM212.8 162.5C211.4 162.5 210.3 163.7 210.3 165C210.3 191.4 188.9 212.8 162.5 212.8C161.1 212.8 160 213.9 160 215.3C160 216.7 161.1 217.8 162.5 217.8C162.5 217.8 162.5 217.8 162.6 217.8C191.7 217.8 215.4 194.1 215.4 165C215.3 163.7 214.2 162.5 212.8 162.5ZM219.9 208L263.7 247.9L245.1 265.2L206.7 221.5C211.6 217.6 216.1 213.1 219.9 208ZM267.4 251.3L275.3 258.5L256.1 277.7L248.4 268.9L267.4 251.3Z" fill="url(#paint0_linear_4_112)"/>
</g>
<defs>
<linearGradient id="paint0_linear_4_112" x1="86.5" y1="32.5" x2="301" y2="282" gradientUnits="userSpaceOnUse">
<stop stop-color="#36339B"/>
<stop offset="1" stop-color="#88169C"/>
</linearGradient>
<clipPath id="clip0_4_112">
<rect width="290.1" height="290.1" fill="white"/>
</clipPath>
</defs>
</svg>
