<svg width="908" height="845" viewBox="0 0 908 845" fill="none" xmlns="http://www.w3.org/2000/svg">
<path d="M794.573 614.446H464.86C385.137 614.446 340.464 670.295 340.464 729.705C340.464 784.536 378.346 844.964 464.86 844.964H794.573V614.446Z" fill="#6DCBFF"/>
<path d="M794.573 844.782C857.217 844.782 908 793.179 908 729.523C908 665.868 857.217 614.265 794.573 614.265C731.929 614.265 681.146 665.868 681.146 729.523C681.146 793.179 731.929 844.782 794.573 844.782Z" fill="#3CB9FE"/>
<path d="M454.109 307.114H124.396C44.6736 307.114 0 362.963 0 422.409C0 477.241 37.8818 537.668 124.396 537.668H454.109V307.114Z" fill="#6DCBFF"/>
<path d="M454.109 537.668C516.753 537.668 567.536 486.065 567.536 422.409C567.536 358.754 516.753 307.151 454.109 307.151C391.465 307.151 340.682 358.754 340.682 422.409C340.682 486.065 391.465 537.668 454.109 537.668Z" fill="#3CB9FE"/>
<path d="M794.573 0H464.86C385.137 0 340.464 55.8489 340.464 115.259C340.464 170.09 378.346 230.517 464.86 230.517H794.573V0Z" fill="#6DCBFF"/>
<path d="M794.573 230.517C857.217 230.517 908 178.914 908 115.259C908 51.6031 857.217 0 794.573 0C731.929 0 681.146 51.6031 681.146 115.259C681.146 178.914 731.929 230.517 794.573 230.517Z" fill="#3CB9FE"/>
</svg>
