<svg width="955" height="215" viewBox="0 0 955 215" fill="#cccccc" xmlns="http://www.w3.org/2000/svg">
<path fill-rule="evenodd" clip-rule="evenodd" d="M274.265 134.252C279.326 129.19 281.857 122.028 281.857 112.766C281.857 103.504 279.326 96.2757 274.265 91.0826C269.178 85.8593 261.973 83.2476 252.65 83.2476H240.062V141.859H252.65C261.973 141.874 269.178 139.339 274.265 134.252ZM363.01 125.862L350.164 88.7368L337.326 125.862H363.01ZM464.851 68.2605V82.6325H441.201V157.036H423.398V82.6325H399.748V68.2605H464.851ZM527.41 125.862L514.572 88.7368L501.726 125.862H527.41ZM581.436 147.599H612.442V157.013H569.866V68.3896H581.436V147.599ZM686.846 68.3896L657.995 123.569V156.975H646.41V123.569L617.415 68.3896H630.261L652.126 113.275L673.999 68.3896H686.846ZM753.588 68.3896V77.7963H729.43V157.013H717.86V77.7963H693.565V68.3896H753.588ZM779.401 68.3896V157.013H767.831V68.3896H779.401ZM800.629 89.3213C804.369 82.5675 809.882 76.9631 816.573 73.1121C823.394 69.187 831.145 67.1654 839.015 67.2586C848.672 67.2586 857.105 69.5919 864.312 74.2583C871.52 78.925 876.776 85.5354 880.081 94.0893H866.233C863.998 89.012 860.297 84.7184 855.604 81.7593C850.983 78.8745 845.453 77.4321 839.015 77.4321C833.173 77.3399 827.416 78.8354 822.358 81.7593C817.413 84.6652 813.399 88.9215 810.788 94.0284C807.989 99.3278 806.589 105.536 806.589 112.652C806.589 119.687 807.989 125.855 810.788 131.154C813.401 136.26 817.414 140.515 822.358 143.423C827.418 146.341 833.174 147.834 839.015 147.743C845.453 147.743 850.983 146.323 855.604 143.484C860.302 140.558 864.007 136.282 866.233 131.215H880.096C876.786 139.688 871.53 146.222 864.327 150.818C857.125 155.414 848.693 157.724 839.03 157.749C831.169 157.844 823.424 155.847 816.588 151.964C809.905 148.16 804.391 142.599 800.644 135.884C792.848 121.329 792.848 103.839 800.644 89.2833L800.629 89.3213ZM277.886 73.7344C284.772 77.1972 290.478 82.6207 294.285 89.3213C298.142 96.0632 300.071 103.883 300.071 112.781C300.071 121.679 298.142 129.456 294.285 136.112C290.446 142.757 284.745 148.133 277.886 151.577C270.8 155.221 262.598 157.043 253.28 157.043H222.259V68.2605H253.28C262.604 68.2605 270.806 70.0852 277.886 73.7344ZM367.838 140.098H332.497L326.643 157.013H307.951L339.884 68.1391H360.611L392.498 157.013H373.684L367.838 140.098ZM532.231 140.098H496.89L491.044 157.013H472.352L504.239 68.1391H524.966L556.853 157.013H538.085L532.231 140.098ZM909.653 154.789C905.318 152.934 901.563 149.947 898.781 146.141C896.136 142.402 894.714 137.936 894.711 133.356H907.018C907.375 137.368 909.209 141.105 912.166 143.84C915.172 146.69 919.558 148.11 925.323 148.1C930.835 148.1 935.18 146.723 938.358 143.97C941.485 141.339 943.241 137.425 943.126 133.341C943.126 129.944 942.195 127.188 940.332 125.073C938.423 122.926 936.025 121.269 933.34 120.244C929.634 118.853 925.855 117.664 922.02 116.683C917.23 115.513 912.533 113.991 907.967 112.128C904.39 110.554 901.282 108.08 898.948 104.946C896.442 101.681 895.189 97.2955 895.189 91.7888C895.107 87.234 896.392 82.7595 898.879 78.9429C901.452 75.1228 905.067 72.1213 909.296 70.2953C914.123 68.1878 919.35 67.1515 924.617 67.2586C932.922 67.2586 939.725 69.3363 945.024 73.4916C950.226 77.4755 953.484 83.4866 953.983 90.0198H941.251C940.826 86.6337 939.054 83.645 935.937 81.0535C932.819 78.462 928.656 77.1689 923.447 77.174C918.619 77.174 914.678 78.4241 911.626 80.9245C908.574 83.4248 907.056 86.9197 907.071 91.4092C906.951 94.2897 907.928 97.1089 909.804 99.2974C911.657 101.351 913.966 102.94 916.546 103.936C920.226 105.326 923.974 106.53 927.775 107.543C932.583 108.798 937.297 110.392 941.881 112.31C945.5 113.92 948.655 116.416 951.052 119.568C953.583 122.833 954.848 127.262 954.848 132.855C954.852 137.16 953.664 141.383 951.417 145.055C948.952 149.034 945.43 152.248 941.244 154.341C936.749 156.719 931.45 157.906 925.345 157.901C919.953 157.99 914.603 156.929 909.653 154.789Z" fill="white"/>
<path d="M0 136.617L9.41308 121.996C8.05618 119.688 7.27782 116.999 7.27782 114.13C7.27782 105.545 14.248 98.5748 22.8333 98.5748C31.4187 98.5748 38.3888 105.545 38.3888 114.13C38.3888 115.071 38.3052 115.992 38.145 116.886L69.1758 140.304C69.7621 140.016 70.369 139.764 70.9938 139.55L78.6801 84.7387C74.2277 82.0008 71.2561 77.0837 71.2561 71.4781C71.2561 62.8928 78.2263 55.9226 86.8115 55.9226C95.3968 55.9226 102.367 62.8928 102.367 71.4781C102.367 71.5803 102.366 71.6824 102.364 71.7841L144.257 93.6676C147.031 91.1074 150.736 89.5425 154.804 89.5425C156.6 89.5425 158.325 89.8475 159.93 90.4083L190.307 55.1976C188.184 50.9653 184.951 47.1777 181.333 45.0887L108.028 2.76616C101.64 -0.922054 91.2674 -0.922054 84.8793 2.76616L11.5746 45.0887C5.18637 48.7769 0 57.7599 0 65.1362V136.617Z" fill="#cccccc"/>
<path d="M192.908 73.6959L169.697 100.598C170.128 102.022 170.36 103.533 170.36 105.098C170.36 113.683 163.389 120.654 154.804 120.654C146.851 120.654 140.283 114.671 139.36 106.965L95.7702 84.193C94.8227 84.8621 93.7974 85.428 92.7106 85.8743L84.9079 141.507C88.939 144.319 91.5785 148.99 91.5785 154.273C91.5785 162.859 84.6083 169.829 76.0231 169.829C67.4378 169.829 60.4676 162.859 60.4676 154.273C60.4676 153.333 60.5511 152.412 60.7113 151.518L29.6823 128.099C27.6153 129.115 25.2905 129.686 22.8333 129.686C22.2912 129.686 21.7555 129.658 21.2275 129.604L2.2716 159.042C1.98432 158.429 1.72063 157.808 1.4827 157.183C3.46781 162.398 7.24519 167.329 11.5746 169.829L84.8793 212.151C91.2674 215.84 101.64 215.84 108.028 212.151L181.333 169.829C187.721 166.141 192.908 157.158 192.908 149.781V73.6959Z" fill="#cccccc"/>
</svg>
