<svg width="90" height="90" viewBox="0 0 90 90" fill="none" xmlns="http://www.w3.org/2000/svg">
<g clip-path="url(#clip0_4_143)">
<path d="M46.4062 12.0938C46.125 11.8125 46.125 11.8125 46.4062 12.0938C45.8437 11.25 45 10.9687 44.4375 11.5312C44.1563 11.5312 44.1563 11.8125 43.875 12.0938L23.9062 49.2188C23.0625 50.9063 22.7812 53.1563 23.625 55.125L31.7813 76.2188H30.9375C28.6875 76.2188 26.7188 78.1875 26.7188 80.4375V86.0625C26.7188 88.3125 28.6875 90.2812 30.9375 90.2812H59.0625C61.3125 90.2812 63.2812 88.3125 63.2812 86.0625V80.4375C63.2812 78.1875 61.3125 76.2188 59.0625 76.2188H58.2188L66.375 55.125C67.2188 53.1563 66.9375 51.1875 66.0938 49.2188L46.4062 12.0938ZM45 49.2188C46.6875 49.2188 47.8125 50.3437 47.8125 52.0312C47.8125 53.7188 46.6875 54.8438 45 54.8438C43.3125 54.8438 42.1875 53.7188 42.1875 52.0312C42.1875 50.3437 43.3125 49.2188 45 49.2188ZM59.0625 78.75C59.9063 78.75 60.4688 79.3125 60.4688 80.1562V85.7812C60.4688 86.625 59.9063 87.1875 59.0625 87.1875H30.9375C30.0937 87.1875 29.5312 86.625 29.5312 85.7812V80.1562C29.5312 79.3125 30.0937 78.75 30.9375 78.75H59.0625ZM63.8438 54L55.4063 75.9375H34.875L26.4375 54C25.875 52.875 26.1562 51.4687 26.7188 50.3437L43.875 18.2812V46.4062C43.875 46.4062 43.875 46.4063 43.875 46.6875C40.7813 47.5313 39.0937 50.625 39.9375 53.4375C40.7812 56.5313 43.875 58.2187 46.6875 57.375C49.7813 56.5312 51.4688 53.4375 50.625 50.625C50.0625 48.6563 48.6563 46.9688 46.6875 46.6875C46.6875 46.6875 46.6875 46.6875 46.6875 46.4062V18.2812L63.8438 50.3437C64.125 51.4687 64.4063 52.875 63.8438 54ZM74.5312 0H68.9062C68.0625 0 67.5 0.5625 67.5 1.40625V2.8125H48.9375C48.0937 0.5625 45.8438 -0.5625 43.5938 0.28125C42.4687 0.84375 41.3438 1.6875 41.0625 2.8125H22.5V1.40625C22.5 0.5625 21.9375 0 21.0938 0H15.4688C14.625 0 14.0625 0.5625 14.0625 1.40625V7.03125C14.0625 7.875 14.625 8.4375 15.4688 8.4375H21.0938C21.9375 8.4375 22.5 7.875 22.5 7.03125V5.625H34.0313C28.6875 8.71875 24.75 13.7813 23.0625 19.6875C20.8125 20.25 19.4062 22.2187 19.6875 24.4687C19.9688 26.7187 22.2187 28.4062 24.4687 27.8437C26.7187 27.8437 28.125 25.875 28.125 23.9062C28.125 22.5 27.2812 21.0937 25.875 20.25C27.8437 12.9375 33.75 7.3125 41.0625 5.90625C41.9063 7.875 44.4375 9 46.6875 7.875C47.5313 7.59375 48.375 6.75 48.6562 5.90625C55.9687 7.3125 61.875 12.9375 63.8438 20.25C62.7188 21.0937 61.875 22.5 61.875 23.9062C61.875 26.1563 63.8437 28.125 66.0938 28.125C68.3438 28.125 70.3125 26.1563 70.3125 23.9062C70.3125 21.9375 68.9063 19.9688 66.6563 19.6875C65.25 13.7813 61.0312 8.4375 55.6875 5.625H67.5V7.03125C67.5 7.875 68.0625 8.4375 68.9062 8.4375H74.5312C75.375 8.4375 75.9375 7.875 75.9375 7.03125V1.40625C75.9375 0.5625 75.375 0 74.5312 0ZM19.6875 5.625H16.875V2.8125H19.6875V5.625ZM23.9062 25.3125C23.0625 25.3125 22.5 24.75 22.5 23.9062C22.5 23.0625 23.0625 22.5 23.9062 22.5H24.1875C24.1875 22.5 24.1875 22.5 24.4687 22.5C24.75 22.7813 25.3125 23.3437 25.3125 23.9062C25.3125 24.75 24.75 25.3125 23.9062 25.3125ZM45 5.625C44.1562 5.625 43.5938 5.0625 43.5938 4.21875C43.5938 3.375 44.1562 2.8125 45 2.8125C45.8438 2.8125 46.4062 3.375 46.4062 4.21875C46.4062 5.0625 45.8438 5.625 45 5.625ZM65.8125 22.5H66.0938C66.9375 22.5 67.5 23.0625 67.5 23.9062C67.5 24.75 66.9375 25.3125 66.0938 25.3125C65.25 25.3125 64.6875 24.75 64.6875 23.9062C64.6875 23.3437 65.25 22.7813 65.8125 22.5ZM73.125 5.625H70.3125V2.8125H73.125V5.625Z" fill="url(#paint0_linear_4_143)"/>
</g>
<defs>
<linearGradient id="paint0_linear_4_143" x1="14" y1="4.65574e-07" x2="76" y2="96" gradientUnits="userSpaceOnUse">
<stop stop-color="#36339B"/>
<stop offset="1" stop-color="#88169C"/>
</linearGradient>
<clipPath id="clip0_4_143">
<rect width="90" height="90" fill="white"/>
</clipPath>
</defs>
</svg>
